{"glyphs":{"0":{"ha":768,"x_min":4,"x_max":767,"o":"m 529 1017 l 767 738 l 690 125 l 311 1 l 4 310 l 67 842 l 281 1031 l 529 1017 l 529 1017 m 357 678 l 326 450 l 388 399 l 454 446 l 442 642 l 357 678 l 357 678 z "},"1":{"ha":983,"x_min":0,"x_max":990,"o":"m 732 1010 l 650 285 l 943 322 l 990 1 l 0 1 l 28 303 l 358 285 l 358 661 l 185 551 l 0 803 l 374 1029 l 732 1010 l 732 1010 z "},"2":{"ha":1013,"x_min":6,"x_max":953,"o":"m 6 840 l 293 1031 l 544 1029 l 756 874 l 847 489 l 571 307 l 874 332 l 953 1 l 153 13 l 47 217 l 458 542 l 429 631 l 363 683 l 194 568 l 6 840 l 6 840 z "},"3":{"ha":854,"x_min":1,"x_max":742,"o":"m 1 843 l 247 1028 l 560 983 l 710 725 l 613 585 l 733 496 l 742 182 l 576 1 l 206 36 l 1 243 l 167 404 l 306 274 l 436 308 l 440 388 l 236 457 l 244 582 l 410 692 l 367 738 l 135 631 l 1 843 l 1 843 z "},"4":{"ha":1057,"x_min":6,"x_max":957,"o":"m 738 568 l 957 558 l 957 310 l 761 297 l 799 43 l 442 6 l 436 297 l 11 297 l 6 556 l 289 1038 l 676 1011 l 738 568 l 738 568 m 300 568 l 424 568 l 413 713 l 300 568 l 300 568 z "},"5":{"ha":925,"x_min":0,"x_max":847,"o":"m 794 1029 l 736 754 l 343 758 l 351 696 l 576 688 l 847 540 l 846 231 l 742 63 l 263 14 l 10 132 l 122 344 l 294 285 l 450 278 l 511 349 l 442 414 l 126 407 l 14 601 l 0 1006 l 794 1029 l 794 1029 z "},"6":{"ha":825,"x_min":0,"x_max":715,"o":"m 214 999 l 465 1036 l 715 985 l 621 693 l 397 776 l 293 694 l 281 617 l 578 608 l 696 417 l 693 167 l 528 1 l 189 1 l 0 167 l 0 515 l 39 799 l 214 999 l 214 999 m 358 371 l 293 339 l 296 257 l 406 257 l 428 346 l 358 371 l 358 371 z "},"7":{"ha":999,"x_min":0,"x_max":890,"o":"m 0 1028 l 890 1008 l 728 -4 l 325 92 l 546 696 l 71 657 l 0 1028 l 0 1028 z "},"8":{"ha":868,"x_min":0,"x_max":801,"o":"m 640 994 l 740 721 l 619 625 l 781 493 l 801 85 l 575 -4 l 214 -4 l 0 121 l 24 488 l 193 617 l 64 721 l 161 1035 l 640 994 l 640 994 m 506 360 l 425 393 l 344 360 l 344 293 l 425 260 l 506 293 l 506 360 l 506 360 m 461 815 l 400 840 l 339 815 l 339 765 l 400 740 l 461 765 l 461 815 l 461 815 z "},"9":{"ha":781,"x_min":0,"x_max":740,"o":"m 425 1038 l 740 824 l 728 444 l 621 176 l 161 1 l 0 224 l 367 319 l 443 454 l 190 435 l 0 643 l 50 940 l 425 1038 l 425 1038 m 313 667 l 433 667 l 446 732 l 390 778 l 313 732 l 313 667 l 313 667 z "}," ":{"ha":694,"x_min":0,"x_max":0,"o":""},"F":{"ha":796,"x_min":1,"x_max":768,"o":"m 68 1036 l 768 1031 l 729 696 l 347 739 l 342 628 l 665 644 l 613 339 l 342 374 l 400 4 l 31 4 l 1 754 l 68 1036 l 68 1036 z "},"G":{"ha":926,"x_min":0,"x_max":900,"o":"m 871 821 l 633 688 l 538 740 l 396 697 l 311 496 l 400 308 l 656 339 l 661 385 l 464 367 l 489 646 l 900 640 l 900 92 l 210 3 l 0 429 l 76 821 l 371 1035 l 732 1010 l 871 821 l 871 821 z "},"H":{"ha":954,"x_min":0,"x_max":925,"o":"m 0 969 l 350 1036 l 367 613 l 571 643 l 583 1017 l 869 1004 l 925 7 l 603 18 l 600 331 l 406 293 l 413 7 l 111 7 l 0 969 l 0 969 z "},"I":{"ha":507,"x_min":7,"x_max":485,"o":"m 7 1026 l 276 1043 l 485 60 l 43 11 l 7 1026 l 7 1026 z "},"J":{"ha":954,"x_min":0,"x_max":914,"o":"m 0 1026 l 304 1033 l 914 1006 l 914 733 l 638 707 l 740 225 l 597 44 l 326 0 l 25 0 l 35 306 l 365 329 l 328 707 l 0 733 l 0 1026 l 0 1026 z "},"K":{"ha":840,"x_min":0,"x_max":840,"o":"m 19 1029 l 310 1029 l 303 749 l 521 997 l 719 786 l 468 513 l 840 247 l 611 0 l 300 338 l 357 -3 l 0 -3 l 19 1029 l 19 1029 z "},"L":{"ha":882,"x_min":0,"x_max":811,"o":"m 386 996 l 346 374 l 772 425 l 811 104 l 39 13 l 0 1040 l 386 996 l 386 996 z "},"M":{"ha":1606,"x_min":0,"x_max":1603,"o":"m 0 106 l 496 1024 l 789 1024 l 886 746 l 1058 1025 l 1318 1031 l 1603 32 l 1232 1 l 1161 254 l 1076 499 l 821 271 l 625 531 l 390 32 l 0 106 l 0 106 z "},"N":{"ha":954,"x_min":0,"x_max":929,"o":"m 0 18 l 185 1031 l 394 1031 l 590 708 l 607 1031 l 929 981 l 861 6 l 594 22 l 389 336 l 329 4 l 0 18 l 0 18 z "},"Z":{"ha":926,"x_min":0,"x_max":868,"o":"m 857 4 l 0 39 l 0 317 l 344 675 l 0 654 l 61 1039 l 868 982 l 853 718 l 536 368 l 868 417 l 857 4 l 857 4 z "},"Y":{"ha":868,"x_min":-129,"x_max":847,"o":"m 99 1018 l 328 774 l 543 1046 l 847 817 l 515 528 l 761 18 l 217 43 l 217 486 l -129 817 l 99 1018 l 99 1018 z "},"X":{"ha":1057,"x_min":0,"x_max":1046,"o":"m 278 1026 l 496 804 l 657 1042 l 921 789 l 729 563 l 1046 314 l 782 10 l 554 307 l 265 17 l 0 279 l 307 556 l 74 817 l 278 1026 l 278 1026 z "},"W":{"ha":1432,"x_min":0,"x_max":1428,"o":"m 1428 938 l 985 8 l 726 8 l 631 288 l 489 7 l 253 0 l 0 1004 l 331 1033 l 393 781 l 468 535 l 697 764 l 871 503 l 1081 1013 l 1428 938 l 1428 938 z "},"V":{"ha":1172,"x_min":0,"x_max":1110,"o":"m 0 1035 l 360 1015 l 503 394 l 557 464 l 711 1015 l 1110 1035 l 718 4 l 235 40 l 0 1035 l 0 1035 z "},"U":{"ha":1013,"x_min":-12,"x_max":964,"o":"m -12 1026 l 436 1026 l 415 325 l 589 450 l 538 951 l 964 951 l 964 276 l 715 -4 l 192 -4 l -12 246 l -12 1026 l -12 1026 z "},"T":{"ha":1099,"x_min":0,"x_max":1026,"o":"m 0 1031 l 1026 1013 l 1026 596 l 679 653 l 775 -1 l 278 -1 l 353 653 l 0 671 l 0 1031 l 0 1031 z "},"S":{"ha":1013,"x_min":1,"x_max":1007,"o":"m 1007 772 l 828 551 l 618 686 l 565 619 l 940 344 l 758 1 l 313 1 l 1 249 l 136 475 l 404 324 l 444 386 l 51 619 l 424 1036 l 758 1036 l 1007 772 l 1007 772 z "},"R":{"ha":940,"x_min":0,"x_max":969,"o":"m 576 1026 l 833 839 l 857 515 l 713 354 l 969 128 l 668 -3 l 353 267 l 400 -1 l 81 -1 l 0 982 l 576 1026 l 576 1026 m 353 739 l 344 542 l 429 531 l 514 653 l 353 739 l 353 739 z "},"P":{"ha":883,"x_min":0,"x_max":878,"o":"m 614 1028 l 858 860 l 878 449 l 631 210 l 324 190 l 324 -6 l 0 -6 l 51 1028 l 614 1028 l 614 1028 m 381 711 l 371 543 l 463 531 l 579 668 l 381 711 l 381 711 z "},"Q":{"ha":1042,"x_min":-29,"x_max":1107,"o":"m 738 1015 l 1001 664 l 907 300 l 1107 117 l 863 -3 l 743 85 l 331 -4 l -29 338 l 36 824 l 361 1028 l 738 1015 l 738 1015 m 317 663 l 307 378 l 535 310 l 408 435 l 592 568 l 701 467 l 739 539 l 600 726 l 317 663 l 317 663 z "},"O":{"ha":1054,"x_min":-44,"x_max":1028,"o":"m 725 1018 l 1028 642 l 942 146 l 393 3 l -44 389 l 21 824 l 347 1031 l 725 1018 l 725 1018 m 429 668 l 358 510 l 481 428 l 610 475 l 603 629 l 429 668 l 429 668 z "},":":{"ha":419,"x_min":19,"x_max":239,"o":"m 128 249 l 228 200 l 239 68 l 158 11 l 29 42 l 19 158 l 128 249 m 22 643 l 117 699 l 232 633 l 236 536 l 139 444 l 35 503 l 22 643 z "},";":{"ha":433,"x_min":15,"x_max":310,"o":"m 100 633 l 193 689 l 306 625 l 310 529 l 214 440 l 113 497 l 100 633 m 124 132 l 228 126 l 197 -24 l 85 -128 l 15 -128 l 111 7 l 124 132 z "},".":{"ha":419,"x_min":89,"x_max":324,"o":"m 149 240 l 258 240 l 324 126 l 278 42 l 149 13 l 89 114 l 149 240 l 149 240 z "},"/":{"ha":794,"x_min":0,"x_max":765,"o":"m 521 1010 l 765 1049 l 275 57 l 0 18 l 521 1010 l 521 1010 z "},"+":{"ha":572,"x_min":-3,"x_max":467,"o":"m 308 728 l 306 589 l 449 603 l 467 444 l 306 451 l 324 307 l 174 296 l 161 451 l 21 456 l -3 588 l 165 588 l 150 735 l 308 728 l 308 728 z "},",":{"ha":201,"x_min":-35,"x_max":192,"o":"m 81 113 l 192 106 l 158 -54 l 39 -165 l -35 -165 l 67 -21 l 81 113 l 81 113 z "},"-":{"ha":607,"x_min":1,"x_max":474,"o":"m 8 475 l 1 599 l 451 654 l 474 492 l 8 475 l 8 475 z "},"=":{"ha":550,"x_min":0,"x_max":444,"o":"m 7 415 l 0 490 l 424 524 l 444 426 l 7 415 m 7 604 l 0 678 l 424 711 l 444 614 l 7 604 z "},"?":{"ha":738,"x_min":0,"x_max":607,"o":"m 414 94 l 365 4 l 242 0 l 192 75 l 225 194 l 336 200 l 414 94 m 356 646 l 394 796 l 314 846 l 192 733 l 0 932 l 182 1082 l 428 1082 l 607 865 l 600 589 l 407 458 l 428 264 l 175 264 l 146 479 l 356 646 z "},"!":{"ha":449,"x_min":0,"x_max":324,"o":"m 99 108 l 147 200 l 274 206 l 324 128 l 290 6 l 178 1 l 99 108 m 296 304 l 129 292 l 0 1067 l 274 1106 l 296 304 z "},"a":{"ha":999,"x_min":-208,"x_max":1063,"o":"m 624 1029 l 1063 72 l 643 6 l 610 251 l 272 260 l 196 -3 l -208 69 l 346 1001 l 624 1029 l 624 1029 m 417 665 l 360 524 l 572 518 l 524 661 l 417 665 l 417 665 z "},"\\":{"ha":622,"x_min":-112,"x_max":653,"o":"m 133 997 l 653 6 l 378 44 l -112 1036 l 133 997 l 133 997 z "},"⁄":{"ha":1157,"x_min":0,"x_max":0,"o":""},"“":{"ha":1157,"x_min":0,"x_max":0,"o":""},"‘":{"ha":1157,"x_min":0,"x_max":0,"o":""},"*":{"ha":358,"x_min":0,"x_max":224,"o":"m 93 999 l 135 1000 l 129 907 l 200 967 l 219 919 l 138 886 l 224 844 l 196 813 l 129 861 l 138 775 l 92 779 l 100 861 l 31 811 l 0 850 l 93 886 l 7 921 l 31 961 l 100 911 l 93 999 l 93 999 z "},")":{"ha":365,"x_min":0,"x_max":349,"o":"m 0 1090 l 99 1090 l 243 914 l 349 558 l 293 182 l 146 3 l 46 3 l 221 236 l 256 551 l 165 871 l 0 1090 l 0 1090 z "},"(":{"ha":342,"x_min":0,"x_max":347,"o":"m 347 1083 l 183 864 l 93 544 l 128 231 l 303 -3 l 203 -3 l 56 175 l 0 551 l 106 907 l 250 1083 l 347 1083 l 347 1083 z "},"'":{"ha":154,"x_min":-4,"x_max":126,"o":"m 51 1090 l 126 1078 l 126 924 l 53 824 l -4 846 l 53 960 l 51 1090 l 51 1090 z "},"_":{"ha":1011,"x_min":0,"x_max":1011,"o":"m 0 -39 l 0 38 l 1011 38 l 1011 -39 l 0 -39 z "},"\"":{"ha":347,"x_min":-4,"x_max":285,"o":"m 51 1090 l 126 1078 l 126 924 l 53 824 l -4 846 l 53 960 l 51 1090 m 285 1078 l 285 924 l 211 824 l 154 846 l 211 960 l 210 1090 l 285 1078 z "},"B":{"ha":840,"x_min":1,"x_max":874,"o":"m 192 1038 l 674 981 l 785 803 l 776 613 l 704 504 l 806 446 l 874 247 l 796 63 l 635 6 l 29 1 l 1 978 l 192 1038 l 192 1038 m 357 211 l 499 242 l 499 336 l 357 385 l 357 211 l 357 211 m 339 642 l 479 671 l 479 785 l 339 815 l 339 642 l 339 642 z "},"c":{"ha":854,"x_min":-49,"x_max":857,"o":"m 399 1033 l 782 1008 l 767 640 l 517 757 l 299 656 l 289 419 l 481 289 l 763 436 l 857 49 l 303 0 l 32 238 l -49 536 l 76 857 l 399 1033 l 399 1033 z "},"d":{"ha":882,"x_min":0,"x_max":863,"o":"m 511 1033 l 803 794 l 863 238 l 575 3 l 0 3 l 0 971 l 511 1033 l 511 1033 m 318 663 l 318 360 l 506 425 l 506 576 l 318 663 l 318 663 z "},"e":{"ha":796,"x_min":0,"x_max":840,"o":"m 75 1035 l 756 1035 l 699 747 l 364 696 l 360 625 l 656 603 l 642 382 l 378 358 l 401 283 l 722 281 l 840 4 l 75 4 l 0 668 l 75 1035 l 75 1035 z "},"f":{"ha":753,"x_min":1,"x_max":768,"o":"m 68 1036 l 768 1031 l 729 696 l 347 739 l 342 628 l 665 644 l 613 339 l 342 374 l 400 4 l 31 4 l 1 754 l 68 1036 l 68 1036 z "},"g":{"ha":926,"x_min":0,"x_max":900,"o":"m 871 821 l 633 688 l 538 740 l 396 697 l 311 496 l 400 308 l 656 339 l 661 385 l 464 367 l 489 646 l 900 640 l 900 92 l 210 3 l 0 429 l 76 821 l 371 1035 l 732 1010 l 871 821 l 871 821 z "},"h":{"ha":954,"x_min":0,"x_max":925,"o":"m 0 969 l 350 1036 l 367 613 l 571 643 l 583 1017 l 869 1004 l 925 7 l 603 18 l 600 331 l 406 293 l 413 7 l 111 7 l 0 969 l 0 969 z "},"i":{"ha":507,"x_min":7,"x_max":485,"o":"m 7 1026 l 276 1043 l 485 60 l 43 11 l 7 1026 l 7 1026 z "},"j":{"ha":954,"x_min":0,"x_max":914,"o":"m 0 1026 l 304 1033 l 914 1006 l 914 733 l 638 707 l 740 225 l 597 44 l 326 0 l 25 0 l 35 306 l 365 329 l 328 707 l 0 733 l 0 1026 l 0 1026 z "},"k":{"ha":840,"x_min":0,"x_max":840,"o":"m 19 1029 l 310 1029 l 303 749 l 521 997 l 719 786 l 468 513 l 840 247 l 611 0 l 300 338 l 357 -3 l 0 -3 l 19 1029 l 19 1029 z "},"l":{"ha":882,"x_min":0,"x_max":811,"o":"m 386 996 l 346 374 l 772 425 l 811 104 l 39 13 l 0 1040 l 386 996 l 386 996 z "},"m":{"ha":1606,"x_min":0,"x_max":1603,"o":"m 0 106 l 496 1024 l 789 1024 l 886 746 l 1058 1025 l 1318 1031 l 1603 32 l 1232 1 l 1161 254 l 1076 499 l 821 271 l 625 531 l 390 32 l 0 106 l 0 106 z "},"n":{"ha":954,"x_min":0,"x_max":929,"o":"m 0 18 l 185 1031 l 394 1031 l 590 708 l 607 1031 l 929 981 l 861 6 l 594 22 l 389 336 l 329 4 l 0 18 l 0 18 z "},"o":{"ha":1054,"x_min":-44,"x_max":1028,"o":"m 725 1018 l 1028 642 l 942 146 l 393 3 l -44 389 l 21 824 l 347 1031 l 725 1018 l 725 1018 m 429 668 l 358 510 l 481 428 l 610 475 l 603 629 l 429 668 l 429 668 z "},"p":{"ha":883,"x_min":0,"x_max":878,"o":"m 614 1028 l 858 860 l 878 449 l 631 210 l 324 190 l 324 -6 l 0 -6 l 51 1028 l 614 1028 l 614 1028 m 381 711 l 371 543 l 463 531 l 579 668 l 381 711 l 381 711 z "},"q":{"ha":1042,"x_min":-29,"x_max":1107,"o":"m 738 1015 l 1001 664 l 907 300 l 1107 117 l 863 -3 l 743 85 l 331 -4 l -29 338 l 36 824 l 361 1028 l 738 1015 l 738 1015 m 317 663 l 307 378 l 535 310 l 408 435 l 592 568 l 701 467 l 739 539 l 600 726 l 317 663 l 317 663 z "},"r":{"ha":940,"x_min":0,"x_max":969,"o":"m 576 1026 l 833 839 l 857 515 l 713 354 l 969 128 l 668 -3 l 353 267 l 400 -1 l 81 -1 l 0 982 l 576 1026 l 576 1026 m 353 739 l 344 542 l 429 531 l 514 653 l 353 739 l 353 739 z "},"s":{"ha":1013,"x_min":1,"x_max":1007,"o":"m 1007 772 l 828 551 l 618 686 l 565 619 l 940 344 l 758 1 l 313 1 l 1 249 l 136 475 l 404 324 l 444 386 l 51 619 l 424 1036 l 758 1036 l 1007 772 l 1007 772 z "},"t":{"ha":1099,"x_min":0,"x_max":1026,"o":"m 0 1031 l 1026 1013 l 1026 596 l 679 653 l 775 -1 l 278 -1 l 353 653 l 0 671 l 0 1031 l 0 1031 z "},"u":{"ha":1013,"x_min":-12,"x_max":964,"o":"m -12 1026 l 436 1026 l 415 325 l 589 450 l 538 951 l 964 951 l 964 276 l 715 -4 l 192 -4 l -12 246 l -12 1026 l -12 1026 z "},"v":{"ha":1172,"x_min":0,"x_max":1110,"o":"m 0 1035 l 360 1015 l 503 394 l 557 464 l 711 1015 l 1110 1035 l 718 4 l 235 40 l 0 1035 l 0 1035 z "},"w":{"ha":1432,"x_min":0,"x_max":1428,"o":"m 1428 938 l 985 8 l 726 8 l 631 288 l 489 7 l 253 0 l 0 1004 l 331 1033 l 393 781 l 468 535 l 697 764 l 871 503 l 1081 1013 l 1428 938 l 1428 938 z "},"x":{"ha":1057,"x_min":0,"x_max":1046,"o":"m 278 1026 l 496 804 l 657 1042 l 921 789 l 729 563 l 1046 314 l 782 10 l 554 307 l 265 17 l 0 279 l 307 556 l 74 817 l 278 1026 l 278 1026 z "},"y":{"ha":868,"x_min":-129,"x_max":847,"o":"m 99 1018 l 328 774 l 543 1046 l 847 817 l 515 528 l 761 18 l 217 43 l 217 486 l -129 817 l 99 1018 l 99 1018 z "},"z":{"ha":926,"x_min":0,"x_max":868,"o":"m 857 4 l 0 39 l 0 317 l 344 675 l 0 654 l 61 1039 l 868 982 l 853 718 l 536 368 l 868 417 l 857 4 l 857 4 z "},"b":{"ha":840,"x_min":1,"x_max":874,"o":"m 192 1038 l 674 981 l 785 803 l 776 613 l 704 504 l 806 446 l 874 247 l 796 63 l 635 6 l 29 1 l 1 978 l 192 1038 l 192 1038 m 357 211 l 499 242 l 499 336 l 357 385 l 357 211 l 357 211 m 339 642 l 479 671 l 479 785 l 339 815 l 339 642 l 339 642 z "},"[":{"ha":304,"x_min":3,"x_max":335,"o":"m 324 1189 l 335 1086 l 124 1104 l 117 -21 l 335 21 l 335 -115 l 10 -136 l 3 1203 l 324 1189 z "},"]":{"ha":478,"x_min":1,"x_max":333,"o":"m 13 -122 l 1 -19 l 213 -37 l 219 1088 l 1 1046 l 1 1182 l 326 1203 l 333 -136 l 13 -122 z "},"@":{"ha":1274,"x_min":4,"x_max":1207,"o":"m 586 143 l 842 256 l 913 174 l 613 3 l 222 88 l 4 485 l 161 993 l 529 1186 l 1092 950 l 1207 478 l 1111 344 l 1033 232 l 883 253 l 825 324 l 640 235 l 325 286 l 254 669 l 449 933 l 708 922 l 828 843 l 832 885 l 931 833 l 907 581 l 940 361 l 1003 338 l 1088 506 l 986 854 l 535 1039 l 274 885 l 165 515 l 294 229 l 586 143 l 586 143 m 529 714 l 467 618 l 507 488 l 626 488 l 706 581 l 665 700 l 529 714 l 529 714 z "},"%":{"ha":854,"x_min":0,"x_max":794,"o":"m 540 1035 l 794 1075 l 286 46 l 0 6 l 540 1035 m 660 407 l 756 296 l 725 49 l 572 0 l 450 122 l 475 336 l 561 413 l 660 407 l 660 407 m 592 271 l 579 179 l 604 158 l 631 178 l 626 257 l 592 271 l 592 271 m 265 1067 l 361 954 l 331 708 l 178 658 l 53 783 l 79 996 l 165 1071 l 265 1067 l 265 1067 m 196 931 l 183 839 l 207 818 l 235 838 l 229 915 l 196 931 l 196 931 z "},"#":{"ha":1157,"x_min":6,"x_max":1151,"o":"m 381 1040 l 549 1081 l 406 40 l 217 0 l 381 1040 m 756 1040 l 925 1081 l 781 40 l 592 0 l 731 1006 l 756 1040 m 997 835 l 1125 626 l 157 596 l 6 825 l 997 835 m 1018 456 l 1151 231 l 188 204 l 83 439 l 1018 456 z "},"$":{"ha":1013,"x_min":1,"x_max":922,"o":"m 922 764 l 758 563 l 599 733 l 401 800 l 353 738 l 922 356 l 694 58 l 286 58 l 1 285 l 125 492 l 360 289 l 617 226 l 654 283 l 47 625 l 388 1006 l 694 1006 l 922 764 m 474 1104 l 589 1103 l 554 -28 l 393 -44 l 474 1104 z "},"<":{"ha":1157,"x_min":14,"x_max":1090,"o":"m 960 1083 q 974 1058 957 1081 q 1015 1010 992 1036 q 1078 942 1042 979 q 688 774 860 849 q 543 711 614 742 q 417 656 472 681 q 328 617 363 632 q 293 600 293 601 q 325 579 292 599 q 415 528 358 560 q 542 457 471 497 q 689 376 614 417 q 836 295 764 335 q 965 224 908 256 q 1056 174 1021 193 q 1090 153 1090 154 q 1072 125 1090 151 q 1033 68 1054 99 q 995 12 1013 38 q 979 -14 978 -14 q 938 14 979 -14 q 830 87 897 42 q 676 190 763 132 q 499 308 589 247 q 14 632 286 450 l 489 860 q 663 943 578 903 q 815 1015 749 983 q 921 1065 881 1046 q 960 1083 961 1083 z "},">":{"ha":1157,"x_min":13,"x_max":1089,"o":"m 143 -11 q 128 14 146 -8 q 88 63 111 36 q 25 131 61 93 q 415 299 243 224 q 559 361 489 331 q 685 416 629 392 q 774 456 740 440 q 810 472 808 471 q 778 493 811 474 q 688 544 744 513 q 560 615 632 575 q 414 697 489 656 q 267 777 339 738 q 138 848 194 817 q 47 899 82 879 q 13 919 13 918 q 31 947 13 921 q 69 1004 49 974 q 108 1060 90 1035 q 124 1086 125 1086 q 163 1058 122 1086 q 272 985 204 1031 q 427 881 340 939 q 604 763 514 822 q 1089 440 817 621 l 614 213 q 440 129 525 169 q 288 57 354 89 q 181 6 221 25 q 143 -11 142 -12 z "},"^":{"ha":549,"x_min":-4,"x_max":411,"o":"m 411 832 q 399 824 410 833 q 374 801 388 814 q 339 768 358 786 q 276 872 304 826 q 233 945 253 913 q 211 979 213 978 q 201 963 211 979 q 176 921 190 946 q 144 866 161 896 q 113 810 128 836 q 88 768 99 785 q 78 751 78 751 q 64 760 76 751 q 36 778 51 768 q 8 795 21 788 q -4 803 -4 803 q 5 817 -4 803 q 29 855 14 831 q 64 910 44 879 q 104 972 83 940 l 213 1142 l 313 986 q 349 929 331 957 q 381 879 367 901 q 403 844 394 857 q 411 832 411 832 z "},"|":{"ha":232,"x_min":4,"x_max":83,"o":"m 83 -168 l 7 -168 l 4 1185 l 81 1185 l 83 -168 z "},"A":{"ha":999,"x_min":-208,"x_max":1063,"o":"m 624 1029 l 1063 72 l 643 6 l 610 251 l 272 260 l 196 -3 l -208 69 l 346 1001 l 624 1029 l 624 1029 m 417 665 l 360 524 l 572 518 l 524 661 l 417 665 l 417 665 z "},"C":{"ha":854,"x_min":-49,"x_max":857,"o":"m 399 1033 l 782 1008 l 767 640 l 517 757 l 299 656 l 289 419 l 481 289 l 763 436 l 857 49 l 303 0 l 32 238 l -49 536 l 76 857 l 399 1033 l 399 1033 z "},"D":{"ha":882,"x_min":0,"x_max":863,"o":"m 511 1033 l 803 794 l 863 238 l 575 3 l 0 3 l 0 971 l 511 1033 l 511 1033 m 318 663 l 318 360 l 506 425 l 506 576 l 318 663 l 318 663 z "},"E":{"ha":796,"x_min":0,"x_max":840,"o":"m 75 1035 l 756 1035 l 699 747 l 364 696 l 360 625 l 656 603 l 642 382 l 378 358 l 401 283 l 722 281 l 840 4 l 75 4 l 0 668 l 75 1035 l 75 1035 z "},"”":{"ha":347,"x_min":-4,"x_max":285,"o":"m 51 1090 l 126 1078 l 126 924 l 53 824 l -4 846 l 53 960 l 51 1090 m 285 1078 l 285 924 l 211 824 l 154 846 l 211 960 l 210 1090 l 285 1078 z "},"’":{"ha":154,"x_min":-4,"x_max":126,"o":"m 51 1090 l 126 1078 l 126 924 l 53 824 l -4 846 l 53 960 l 51 1090 l 51 1090 z "}}}
